# Blender 3.6.5
# www.blender.org
mtllib ico1.mtl
o Icosphere
v 0.000000 0.000000 -1.000000
v -0.525725 -0.723607 -0.447220
v -0.850649 0.276388 -0.447220
v 0.000000 0.894426 -0.447216
v 0.850649 0.276388 -0.447220
v 0.525725 -0.723607 -0.447220
v -0.850649 -0.276388 0.447220
v -0.525725 0.723607 0.447220
v 0.525725 0.723607 0.447220
v 0.850649 -0.276388 0.447220
v 0.000000 -0.894426 0.447216
v 0.000000 0.000000 1.000000
v -0.499995 0.162456 -0.850654
v -0.309011 -0.425323 -0.850654
v -0.809012 -0.262869 -0.525738
v 0.000000 -0.850648 -0.525736
v 0.309011 -0.425323 -0.850654
v 0.000000 0.525730 -0.850652
v -0.499997 0.688189 -0.525736
v 0.499995 0.162456 -0.850654
v 0.499997 0.688189 -0.525736
v 0.809012 -0.262869 -0.525738
v -0.309013 -0.951058 0.000000
v 0.309013 -0.951058 0.000000
v -1.000000 0.000000 0.000000
v -0.809017 -0.587786 0.000000
v -0.309013 0.951058 0.000000
v -0.809017 0.587786 0.000000
v 0.809017 0.587786 0.000000
v 0.309013 0.951058 0.000000
v 0.809017 -0.587786 0.000000
v 1.000000 0.000000 0.000000
v -0.499997 -0.688189 0.525736
v -0.809012 0.262869 0.525738
v 0.000000 0.850648 0.525736
v 0.809012 0.262869 0.525738
v 0.499997 -0.688189 0.525736
v -0.499995 -0.162456 0.850654
v 0.000000 -0.525730 0.850652
v -0.309011 0.425323 0.850654
v 0.309011 0.425323 0.850654
v 0.499995 -0.162456 0.850654
vn -0.3151 -0.1024 -0.9435
vn -0.2680 -0.7002 -0.6617
vn -0.1947 0.2680 -0.9435
vn 0.1947 0.2680 -0.9435
vn 0.3151 -0.1024 -0.9435
vn -0.2680 -0.9050 -0.3304
vn -0.9435 -0.0247 -0.3304
vn -0.3151 0.8897 -0.3304
vn 0.7488 0.5746 -0.3304
vn 0.7779 -0.5346 -0.3304
vn -0.5831 -0.8026 -0.1256
vn -0.9435 0.3066 -0.1256
vn -0.0000 0.9921 -0.1256
vn 0.9435 0.3066 -0.1256
vn 0.5831 -0.8026 -0.1256
vn -0.6284 -0.4089 0.6617
vn -0.5831 0.4713 0.6617
vn 0.2680 0.7002 0.6617
vn 0.7488 -0.0385 0.6617
vn 0.1947 -0.7240 0.6617
vn 0.1947 -0.2680 0.9435
vn 0.3568 -0.4911 0.7947
vn 0.6284 -0.4089 0.6617
vn 0.3151 0.1024 0.9435
vn 0.5773 0.1876 0.7947
vn 0.5831 0.4713 0.6617
vn -0.0000 0.3313 0.9435
vn -0.0000 0.6071 0.7947
vn -0.2680 0.7002 0.6617
vn -0.3151 0.1024 0.9435
vn -0.5773 0.1876 0.7947
vn -0.7488 -0.0385 0.6617
vn -0.1947 -0.2680 0.9435
vn -0.3568 -0.4911 0.7947
vn -0.1947 -0.7240 0.6617
vn 0.3151 -0.8897 0.3304
vn 0.5773 -0.7947 0.1876
vn 0.7488 -0.5746 0.3304
vn 0.9435 0.0247 0.3304
vn 0.9342 0.3035 0.1876
vn 0.7779 0.5346 0.3304
vn 0.2680 0.9050 0.3304
vn -0.0000 0.9822 0.1876
vn -0.2680 0.9050 0.3304
vn -0.7779 0.5346 0.3304
vn -0.9342 0.3035 0.1876
vn -0.9435 0.0247 0.3304
vn -0.7488 -0.5746 0.3304
vn -0.5773 -0.7947 0.1876
vn -0.3151 -0.8897 0.3304
vn 0.9435 -0.3066 0.1256
vn 0.9342 -0.3035 -0.1876
vn 0.9435 -0.0247 -0.3304
vn 0.5831 0.8026 0.1256
vn 0.5773 0.7947 -0.1876
vn 0.3151 0.8897 -0.3304
vn -0.5831 0.8026 0.1256
vn -0.5773 0.7947 -0.1876
vn -0.7488 0.5746 -0.3304
vn -0.9435 -0.3066 0.1256
vn -0.9342 -0.3035 -0.1876
vn -0.7779 -0.5346 -0.3304
vn -0.0000 -0.9921 0.1256
vn -0.0000 -0.9822 -0.1876
vn 0.2680 -0.9050 -0.3304
vn 0.5831 -0.4713 -0.6617
vn 0.5773 -0.1876 -0.7947
vn 0.7488 0.0385 -0.6617
vn 0.6284 0.4089 -0.6617
vn 0.3568 0.4911 -0.7947
vn 0.1947 0.7240 -0.6617
vn -0.1947 0.7240 -0.6617
vn -0.3568 0.4911 -0.7947
vn -0.6284 0.4089 -0.6617
vn 0.2680 -0.7002 -0.6617
vn -0.0000 -0.6071 -0.7947
vn -0.0000 -0.3313 -0.9435
vn -0.7488 0.0385 -0.6617
vn -0.5773 -0.1876 -0.7947
vn -0.5831 -0.4713 -0.6617
vt 0.515126 0.645119
vt 0.430754 0.702957
vt 0.430754 0.587281
vt 0.344765 0.645120
vt 0.429138 0.587281
vt 0.429138 0.702957
vt 0.085181 0.645120
vt 0.000808 0.702958
vt 0.000808 0.587281
vt 0.629618 0.430759
vt 0.687457 0.515132
vt 0.571780 0.515132
vt 0.999191 0.194863
vt 0.962303 0.290274
vt 0.896898 0.194863
vt 0.689074 0.678388
vt 0.725962 0.582977
vt 0.791370 0.678388
vt 0.388922 0.704574
vt 0.484334 0.741461
vt 0.388922 0.806869
vt 0.097835 0.808485
vt 0.193247 0.845373
vt 0.097835 0.910780
vt 0.172788 0.527824
vt 0.257162 0.469986
vt 0.257162 0.585664
vt 0.430759 0.527823
vt 0.515133 0.469986
vt 0.515133 0.585664
vt 0.689074 0.097836
vt 0.791370 0.097836
vt 0.725965 0.193249
vt 0.689074 0.096220
vt 0.725965 0.000808
vt 0.791371 0.096220
vt 0.687106 0.645118
vt 0.602732 0.702956
vt 0.602732 0.587281
vt 0.629620 0.429143
vt 0.571780 0.344768
vt 0.687458 0.344768
vt 0.689074 0.387307
vt 0.725965 0.291894
vt 0.791370 0.387307
vt 0.194865 0.806869
vt 0.194865 0.704574
vt 0.290277 0.769980
vt 0.895281 0.388919
vt 0.858392 0.484330
vt 0.792987 0.388919
vt 0.895281 0.582974
vt 0.858393 0.678384
vt 0.792987 0.582974
vt 0.257159 0.645119
vt 0.172786 0.702958
vt 0.172786 0.587280
vt 0.896898 0.097836
vt 0.999192 0.097836
vt 0.933787 0.193247
vt 0.933786 0.388917
vt 0.999191 0.484328
vt 0.896898 0.484328
vt 0.204398 0.293237
vt 0.304577 0.235398
vt 0.304577 0.351076
vt 0.775419 0.769979
vt 0.680006 0.806868
vt 0.680006 0.704574
vt 0.999191 0.679997
vt 0.933786 0.775408
vt 0.896898 0.679997
vt 0.512325 0.000808
vt 0.570164 0.100987
vt 0.454487 0.100987
vt 0.858392 0.291891
vt 0.895281 0.387303
vt 0.792987 0.387303
vt 0.933787 0.485945
vt 0.999191 0.581355
vt 0.896898 0.581355
vt 0.454487 0.102603
vt 0.570164 0.102603
vt 0.512324 0.202781
vt 0.290274 0.873891
vt 0.194863 0.910780
vt 0.194863 0.808485
vt 0.896897 0.387301
vt 0.962303 0.291890
vt 0.999191 0.387301
vt 0.306194 0.468369
vt 0.306194 0.352692
vt 0.406372 0.410532
vt 0.485946 0.910780
vt 0.485946 0.808485
vt 0.581358 0.845375
vt 0.171170 0.587281
vt 0.171170 0.702958
vt 0.086797 0.645118
vt 0.102603 0.351076
vt 0.102603 0.235398
vt 0.202782 0.293237
vt 0.777031 0.910780
vt 0.777031 0.808485
vt 0.872443 0.845375
vt 0.775415 0.845373
vt 0.680003 0.910780
vt 0.680003 0.808485
vt 0.102604 0.100988
vt 0.160443 0.000808
vt 0.218283 0.100988
vt 0.096221 0.769979
vt 0.000808 0.806869
vt 0.000808 0.704574
vt 0.484330 0.845373
vt 0.388917 0.910780
vt 0.388917 0.808485
vt 0.452871 0.202786
vt 0.337193 0.202786
vt 0.395031 0.102605
vt 0.582974 0.845375
vt 0.678387 0.808485
vt 0.678387 0.910780
vt 0.689074 0.484334
vt 0.754482 0.388923
vt 0.791370 0.484334
vt 0.277740 0.102605
vt 0.335577 0.202784
vt 0.219899 0.202784
vt 0.571780 0.257161
vt 0.629621 0.172788
vt 0.687458 0.257161
vt 0.571780 0.000808
vt 0.687458 0.000808
vt 0.629621 0.085182
vt 0.452871 0.100989
vt 0.337193 0.100989
vt 0.395033 0.000808
vt 0.678390 0.704574
vt 0.678390 0.806869
vt 0.582978 0.769982
vt 0.343153 0.469986
vt 0.343153 0.585664
vt 0.258778 0.527826
vt 0.000808 0.175942
vt 0.100988 0.118103
vt 0.100988 0.233782
vt 0.792987 0.680001
vt 0.895281 0.680001
vt 0.858394 0.775412
vt 0.387306 0.741465
vt 0.291893 0.806869
vt 0.291893 0.704574
vt 0.337193 0.304583
vt 0.395031 0.204402
vt 0.452871 0.304583
vt 0.581362 0.769982
vt 0.485950 0.806869
vt 0.485950 0.704574
vt 0.344769 0.585664
vt 0.344769 0.469986
vt 0.429143 0.527824
vt 0.102605 0.233782
vt 0.102605 0.118103
vt 0.202785 0.175943
vt 0.000808 0.469986
vt 0.085181 0.527825
vt 0.000808 0.585664
vt 0.791370 0.194865
vt 0.725965 0.290278
vt 0.689074 0.194865
vt 0.219899 0.100989
vt 0.277738 0.000808
vt 0.335577 0.100989
vt 0.086797 0.469986
vt 0.171171 0.527824
vt 0.086797 0.585664
vt 0.571780 0.258777
vt 0.687458 0.258777
vt 0.629618 0.343152
vt 0.000808 0.116487
vt 0.000808 0.000808
vt 0.100988 0.058648
vt 0.571780 0.171172
vt 0.629618 0.086798
vt 0.687458 0.171172
vt 0.516742 0.702956
vt 0.516742 0.587281
vt 0.601116 0.645118
vt 0.000808 0.351076
vt 0.000808 0.235398
vt 0.100987 0.293239
vt 0.725962 0.581361
vt 0.689074 0.485950
vt 0.791370 0.485950
vt 0.792987 0.581357
vt 0.858392 0.485946
vt 0.895281 0.581357
vt 0.304577 0.410532
vt 0.204399 0.468369
vt 0.204399 0.352692
vt 0.895281 0.290275
vt 0.792987 0.290275
vt 0.829876 0.194864
vt 0.895281 0.000808
vt 0.829876 0.096220
vt 0.792987 0.000808
vt 0.100988 0.352692
vt 0.100988 0.468370
vt 0.000808 0.410532
vt 0.291890 0.910780
vt 0.291890 0.808485
vt 0.387301 0.845375
vt 0.933787 0.000808
vt 0.999192 0.096219
vt 0.896898 0.096219
vt 0.454487 0.406372
vt 0.512325 0.306192
vt 0.570164 0.406372
vt 0.193249 0.769980
vt 0.097837 0.806869
vt 0.097837 0.704574
vt 0.000808 0.873891
vt 0.096219 0.808485
vt 0.096219 0.910780
vt 0.570164 0.304576
vt 0.454487 0.304576
vt 0.512324 0.204398
vt 0.999191 0.678381
vt 0.896898 0.678381
vt 0.933787 0.582971
vt 0.792987 0.193248
vt 0.858392 0.097837
vt 0.895282 0.193248
vt 0.102604 0.352692
vt 0.202782 0.410530
vt 0.102604 0.468369
vt 0.258775 0.587280
vt 0.343149 0.645119
vt 0.258775 0.702957
s 0
f 1/1/1 14/2/1 13/3/1
f 2/4/2 14/5/2 16/6/2
f 1/7/3 13/8/3 18/9/3
f 1/10/4 18/11/4 20/12/4
f 1/13/5 20/14/5 17/15/5
f 2/16/6 16/17/6 23/18/6
f 3/19/7 15/20/7 25/21/7
f 4/22/8 19/23/8 27/24/8
f 5/25/9 21/26/9 29/27/9
f 6/28/10 22/29/10 31/30/10
f 2/31/11 23/32/11 26/33/11
f 3/34/12 25/35/12 28/36/12
f 4/37/13 27/38/13 30/39/13
f 5/40/14 29/41/14 32/42/14
f 6/43/15 31/44/15 24/45/15
f 7/46/16 33/47/16 38/48/16
f 8/49/17 34/50/17 40/51/17
f 9/52/18 35/53/18 41/54/18
f 10/55/19 36/56/19 42/57/19
f 11/58/20 37/59/20 39/60/20
f 39/61/21 42/62/21 12/63/21
f 39/64/22 37/65/22 42/66/22
f 37/67/23 10/68/23 42/69/23
f 42/70/24 41/71/24 12/72/24
f 42/73/25 36/74/25 41/75/25
f 36/76/26 9/77/26 41/78/26
f 41/79/27 40/80/27 12/81/27
f 41/82/28 35/83/28 40/84/28
f 35/85/29 8/86/29 40/87/29
f 40/88/30 38/89/30 12/90/30
f 40/91/31 34/92/31 38/93/31
f 34/94/32 7/95/32 38/96/32
f 38/97/33 39/98/33 12/99/33
f 38/100/34 33/101/34 39/102/34
f 33/103/35 11/104/35 39/105/35
f 24/106/36 37/107/36 11/108/36
f 24/109/37 31/110/37 37/111/37
f 31/112/38 10/113/38 37/114/38
f 32/115/39 36/116/39 10/117/39
f 32/118/40 29/119/40 36/120/40
f 29/121/41 9/122/41 36/123/41
f 30/124/42 35/125/42 9/126/42
f 30/127/43 27/128/43 35/129/43
f 27/130/44 8/131/44 35/132/44
f 28/133/45 34/134/45 8/135/45
f 28/136/46 25/137/46 34/138/46
f 25/139/47 7/140/47 34/141/47
f 26/142/48 33/143/48 7/144/48
f 26/145/49 23/146/49 33/147/49
f 23/148/50 11/149/50 33/150/50
f 31/151/51 32/152/51 10/153/51
f 31/154/52 22/155/52 32/156/52
f 22/157/53 5/158/53 32/159/53
f 29/160/54 30/161/54 9/162/54
f 29/163/55 21/164/55 30/165/55
f 21/166/56 4/167/56 30/168/56
f 27/169/57 28/170/57 8/171/57
f 27/172/58 19/173/58 28/174/58
f 19/175/59 3/176/59 28/177/59
f 25/178/60 26/179/60 7/180/60
f 25/181/61 15/182/61 26/183/61
f 15/184/62 2/185/62 26/186/62
f 23/187/63 24/188/63 11/189/63
f 23/190/64 16/191/64 24/192/64
f 16/193/65 6/194/65 24/195/65
f 17/196/66 22/197/66 6/198/66
f 17/199/67 20/200/67 22/201/67
f 20/202/68 5/203/68 22/204/68
f 20/205/69 21/206/69 5/207/69
f 20/208/70 18/209/70 21/210/70
f 18/211/71 4/212/71 21/213/71
f 18/214/72 19/215/72 4/216/72
f 18/217/73 13/218/73 19/219/73
f 13/220/74 3/221/74 19/222/74
f 16/223/75 17/224/75 6/225/75
f 16/226/76 14/227/76 17/228/76
f 14/229/77 1/230/77 17/231/77
f 13/232/78 15/233/78 3/234/78
f 13/235/79 14/236/79 15/237/79
f 14/238/80 2/239/80 15/240/80
